<mxfile host="app.diagrams.net" modified="2023-07-21T05:27:15.880Z" agent="Mozilla/5.0 (Windows NT 10.0; Win64; x64) AppleWebKit/537.36 (KHTML, like Gecko) Chrome/114.0.0.0 Safari/537.36" etag="naLTRfHcLPu8Bsfry95j" version="21.6.3" type="device">
  <diagram id="C5RBs43oDa-KdzZeNtuy" name="Page-1">
    <mxGraphModel dx="1253" dy="1106" grid="1" gridSize="10" guides="1" tooltips="1" connect="1" arrows="1" fold="1" page="1" pageScale="1" pageWidth="827" pageHeight="1169" math="0" shadow="0">
      <root>
        <mxCell id="WIyWlLk6GJQsqaUBKTNV-0" />
        <mxCell id="WIyWlLk6GJQsqaUBKTNV-1" parent="WIyWlLk6GJQsqaUBKTNV-0" />
        <mxCell id="_g0bA3QTjUobuGk14PFi-1" value="GameClient" style="whiteSpace=wrap;html=1;aspect=fixed;labelBackgroundColor=none;fillColor=#fa0000;strokeColor=#BAC8D3;fontColor=#EEEEEE;" parent="WIyWlLk6GJQsqaUBKTNV-1" vertex="1">
          <mxGeometry x="359" y="420" width="110" height="110" as="geometry" />
        </mxCell>
        <mxCell id="_g0bA3QTjUobuGk14PFi-2" value="GameEngine" style="whiteSpace=wrap;html=1;aspect=fixed;labelBackgroundColor=none;fillColor=#6e00f5;strokeColor=#BAC8D3;fontColor=#EEEEEE;rounded=1;arcSize=50;" parent="WIyWlLk6GJQsqaUBKTNV-1" vertex="1">
          <mxGeometry x="120" y="225" width="110" height="110" as="geometry" />
        </mxCell>
        <mxCell id="_g0bA3QTjUobuGk14PFi-3" value="GraphicsEngine&lt;br&gt;" style="whiteSpace=wrap;html=1;aspect=fixed;labelBackgroundColor=none;fillColor=#375d09;strokeColor=#BAC8D3;fontColor=#EEEEEE;rounded=1;arcSize=50;" parent="WIyWlLk6GJQsqaUBKTNV-1" vertex="1">
          <mxGeometry x="600" y="227" width="106" height="106" as="geometry" />
        </mxCell>
        <mxCell id="_g0bA3QTjUobuGk14PFi-4" value="Math" style="whiteSpace=wrap;html=1;aspect=fixed;labelBackgroundColor=none;fillColor=#09555B;strokeColor=#BAC8D3;fontColor=#EEEEEE;rounded=1;arcSize=50;" parent="WIyWlLk6GJQsqaUBKTNV-1" vertex="1">
          <mxGeometry x="364" y="40" width="100" height="100" as="geometry" />
        </mxCell>
        <mxCell id="_g0bA3QTjUobuGk14PFi-5" value="Tool&lt;br&gt;" style="whiteSpace=wrap;html=1;aspect=fixed;labelBackgroundColor=none;fillColor=#09345d;strokeColor=#BAC8D3;fontColor=#EEEEEE;" parent="WIyWlLk6GJQsqaUBKTNV-1" vertex="1">
          <mxGeometry x="363.5" y="230" width="100" height="100" as="geometry" />
        </mxCell>
        <mxCell id="_g0bA3QTjUobuGk14PFi-9" value="" style="shape=flexArrow;endArrow=classic;html=1;rounded=0;exitX=0.5;exitY=1;exitDx=0;exitDy=0;entryX=0.5;entryY=0;entryDx=0;entryDy=0;labelBackgroundColor=none;strokeColor=#0B4D6A;fontColor=default;" parent="WIyWlLk6GJQsqaUBKTNV-1" source="_g0bA3QTjUobuGk14PFi-4" target="_g0bA3QTjUobuGk14PFi-3" edge="1">
          <mxGeometry width="50" height="50" relative="1" as="geometry">
            <mxPoint x="390" y="390" as="sourcePoint" />
            <mxPoint x="440" y="340" as="targetPoint" />
          </mxGeometry>
        </mxCell>
        <mxCell id="_g0bA3QTjUobuGk14PFi-10" value="" style="shape=flexArrow;endArrow=classic;html=1;rounded=0;entryX=0.5;entryY=0;entryDx=0;entryDy=0;labelBackgroundColor=none;strokeColor=#0B4D6A;fontColor=default;exitX=0.5;exitY=1;exitDx=0;exitDy=0;" parent="WIyWlLk6GJQsqaUBKTNV-1" source="_g0bA3QTjUobuGk14PFi-4" target="_g0bA3QTjUobuGk14PFi-2" edge="1">
          <mxGeometry width="50" height="50" relative="1" as="geometry">
            <mxPoint x="410" y="150" as="sourcePoint" />
            <mxPoint x="440" y="340" as="targetPoint" />
          </mxGeometry>
        </mxCell>
        <mxCell id="_g0bA3QTjUobuGk14PFi-11" value="" style="shape=flexArrow;endArrow=classic;html=1;rounded=0;exitX=0;exitY=0.5;exitDx=0;exitDy=0;entryX=1;entryY=0.5;entryDx=0;entryDy=0;labelBackgroundColor=none;strokeColor=#0B4D6A;fontColor=default;" parent="WIyWlLk6GJQsqaUBKTNV-1" source="_g0bA3QTjUobuGk14PFi-3" target="_g0bA3QTjUobuGk14PFi-5" edge="1">
          <mxGeometry width="50" height="50" relative="1" as="geometry">
            <mxPoint x="390" y="390" as="sourcePoint" />
            <mxPoint x="440" y="340" as="targetPoint" />
          </mxGeometry>
        </mxCell>
        <mxCell id="_g0bA3QTjUobuGk14PFi-12" value="" style="shape=flexArrow;endArrow=classic;html=1;rounded=0;exitX=1;exitY=0.5;exitDx=0;exitDy=0;labelBackgroundColor=none;strokeColor=#0B4D6A;fontColor=default;entryX=0;entryY=0.5;entryDx=0;entryDy=0;" parent="WIyWlLk6GJQsqaUBKTNV-1" source="_g0bA3QTjUobuGk14PFi-2" target="_g0bA3QTjUobuGk14PFi-5" edge="1">
          <mxGeometry width="50" height="50" relative="1" as="geometry">
            <mxPoint x="390" y="390" as="sourcePoint" />
            <mxPoint x="400" y="390" as="targetPoint" />
          </mxGeometry>
        </mxCell>
        <mxCell id="_g0bA3QTjUobuGk14PFi-13" value="" style="shape=flexArrow;endArrow=classic;html=1;rounded=0;exitX=0.5;exitY=1;exitDx=0;exitDy=0;labelBackgroundColor=none;strokeColor=#0B4D6A;fontColor=default;entryX=0.5;entryY=0;entryDx=0;entryDy=0;" parent="WIyWlLk6GJQsqaUBKTNV-1" source="_g0bA3QTjUobuGk14PFi-3" target="_g0bA3QTjUobuGk14PFi-6" edge="1">
          <mxGeometry width="50" height="50" relative="1" as="geometry">
            <mxPoint x="570" y="350" as="sourcePoint" />
            <mxPoint x="620" y="300" as="targetPoint" />
          </mxGeometry>
        </mxCell>
        <mxCell id="_g0bA3QTjUobuGk14PFi-14" value="" style="shape=flexArrow;endArrow=classic;html=1;rounded=0;entryX=0.373;entryY=0.018;entryDx=0;entryDy=0;entryPerimeter=0;labelBackgroundColor=none;strokeColor=#0B4D6A;fontColor=default;exitX=0.5;exitY=1;exitDx=0;exitDy=0;" parent="WIyWlLk6GJQsqaUBKTNV-1" source="_g0bA3QTjUobuGk14PFi-2" target="_g0bA3QTjUobuGk14PFi-1" edge="1">
          <mxGeometry width="50" height="50" relative="1" as="geometry">
            <mxPoint x="215" y="290" as="sourcePoint" />
            <mxPoint x="140" y="262.96" as="targetPoint" />
          </mxGeometry>
        </mxCell>
        <mxCell id="_g0bA3QTjUobuGk14PFi-15" value="" style="shape=flexArrow;endArrow=classic;html=1;rounded=0;entryX=0.75;entryY=0;entryDx=0;entryDy=0;exitX=0.5;exitY=1;exitDx=0;exitDy=0;labelBackgroundColor=none;strokeColor=#0B4D6A;fontColor=default;" parent="WIyWlLk6GJQsqaUBKTNV-1" source="_g0bA3QTjUobuGk14PFi-3" target="_g0bA3QTjUobuGk14PFi-1" edge="1">
          <mxGeometry width="50" height="50" relative="1" as="geometry">
            <mxPoint x="380" y="330" as="sourcePoint" />
            <mxPoint x="430" y="280" as="targetPoint" />
          </mxGeometry>
        </mxCell>
        <mxCell id="NpqN6qYDKduva-zRDUpz-0" value="Graphic" style="swimlane;" vertex="1" parent="WIyWlLk6GJQsqaUBKTNV-1">
          <mxGeometry x="575" y="170" width="155" height="390" as="geometry" />
        </mxCell>
        <mxCell id="_g0bA3QTjUobuGk14PFi-6" value="GraphicsDemo&lt;br&gt;" style="whiteSpace=wrap;html=1;aspect=fixed;labelBackgroundColor=none;fillColor=#375d09;strokeColor=#BAC8D3;fontColor=#EEEEEE;" parent="NpqN6qYDKduva-zRDUpz-0" vertex="1">
          <mxGeometry x="21" y="250" width="110" height="110" as="geometry" />
        </mxCell>
        <mxCell id="NpqN6qYDKduva-zRDUpz-1" value="engine" style="swimlane;" vertex="1" parent="WIyWlLk6GJQsqaUBKTNV-1">
          <mxGeometry x="97.5" y="180" width="155" height="180" as="geometry" />
        </mxCell>
        <mxCell id="NpqN6qYDKduva-zRDUpz-3" value="Tool" style="swimlane;" vertex="1" parent="WIyWlLk6GJQsqaUBKTNV-1">
          <mxGeometry x="336" y="180" width="155" height="180" as="geometry" />
        </mxCell>
        <mxCell id="NpqN6qYDKduva-zRDUpz-4" value="Output" style="swimlane;" vertex="1" parent="WIyWlLk6GJQsqaUBKTNV-1">
          <mxGeometry x="336.5" y="380" width="155" height="180" as="geometry" />
        </mxCell>
      </root>
    </mxGraphModel>
  </diagram>
</mxfile>
